<?xml version="1.0" encoding="iso-8859-1"?>
<!-- Generator: Adobe Illustrator 19.0.0, SVG Export Plug-In . SVG Version: 6.00 Build 0)  -->
<svg version="1.1" id="Capa_1" xmlns="http://www.w3.org/2000/svg" xmlns:xlink="http://www.w3.org/1999/xlink" x="0px" y="0px"
	 viewBox="0 0 512 512" style="enable-background:new 0 0 512 512;" xml:space="preserve">
<path style="fill:#FFFFFF;" d="M378.977,212.374c-51.533,0-95.657-13.193-113.97-31.908l-9.054-0.047V406.14
	c0,28.288,55.079,51.219,123.024,51.219C446.92,457.36,502,434.428,502,406.14V181.7l-10.251-0.053
	C472.762,199.733,429.418,212.374,378.977,212.374z"/>
<g>
	<path style="fill:#FFA33B;" d="M500.105,291.394c-10.217,23.996-60.561,42.219-121.128,42.219l0,0v62.092l0,0
		c67.942,0,123.023-22.932,123.023-51.219v-53.092H500.105z"/>
	<path style="fill:#FFA33B;" d="M378.977,395.268c-67.945,0-123.024-22.932-123.024-51.219v62.092
		c0,28.288,55.079,51.219,123.024,51.219C446.92,457.36,502,434.428,502,406.14v-62.092C502,372.336,446.92,395.268,378.977,395.268
		z"/>
</g>
<path style="fill:#FFFFFF;" d="M299.755,445.323c21.404,7.509,49.041,12.037,79.222,12.037c30.169,0,57.796-4.524,79.197-12.028
	V383.24c-21.401,7.504-49.028,12.028-79.197,12.028c-30.181,0-57.818-4.528-79.222-12.037V445.323z"/>
<g>
	<path style="fill:#FFA33B;" d="M500.105,168.694c-10.217,23.996-60.561,42.219-121.128,42.219l0,0v62.092l0,0
		c67.942,0,123.023-22.932,123.023-51.219v-53.092L500.105,168.694L500.105,168.694z"/>
	<path style="fill:#FFA33B;" d="M378.977,271.567c-67.945,0-123.024-22.932-123.024-51.219v62.092
		c0,28.288,55.079,51.219,123.024,51.219C446.92,333.659,502,310.728,502,282.44v-62.092
		C502,248.636,446.92,271.567,378.977,271.567z"/>
</g>
<path style="fill:#FFFFFF;" d="M299.755,321.623c21.404,7.509,49.041,12.037,79.222,12.037c30.169,0,57.796-4.524,79.197-12.028
	V259.54c-21.401,7.504-49.028,12.028-79.197,12.028c-30.181,0-57.818-4.528-79.222-12.037V321.623z"/>
<path style="fill:#FFA33B;" d="M378.977,150.683c-67.945,0-123.024-22.932-123.024-51.219v62.092
	c0,28.288,55.079,51.219,123.024,51.219c67.942,0,123.023-22.932,123.023-51.219V99.464C502,127.751,446.92,150.683,378.977,150.683
	z"/>
<g>
	<path style="fill:#FFFFFF;" d="M299.755,200.739c21.404,7.509,49.041,12.037,79.222,12.037c30.169,0,57.796-4.524,79.197-12.028
		v-62.092c-21.401,7.504-49.028,12.028-79.197,12.028c-30.181,0-57.818-4.528-79.222-12.037V200.739z"/>
	<ellipse style="fill:#FFFFFF;" cx="378.98" cy="98.9" rx="122.93" ry="51.904"/>
</g>
<g>
	<path style="fill:#FFA33B;" d="M339.071,81.471c11.6-1.933,25.266-3.052,39.906-3.052c12.312,0,23.929,0.794,34.215,2.195
		l5.793-2.195l20.384-20.871l-7.38-5.487C415.936,48.818,397.96,47,378.977,47c-21.783,0-42.238,2.396-59.981,6.592l-5.072,3.957
		l22.455,22.992L339.071,81.471z"/>
	<path style="fill:#FFA33B;" d="M418.882,116.337c-11.6,1.933-25.266,3.052-39.906,3.052c-12.312,0-23.929-0.794-34.215-2.195
		l-5.793,2.195l-20.384,20.871l7.38,5.487c16.051,3.244,34.028,5.062,53.011,5.062c21.783,0,42.238-2.396,59.981-6.592l5.072-3.957
		l-22.455-22.992L418.882,116.337z"/>
</g>
<g>
	<ellipse style="fill:#FFFFFF;" cx="378.98" cy="98.9" rx="76" ry="20.484"/>
	<path style="fill:#FFFFFF;" d="M133.024,219.983c-51.533,0-95.657-13.193-113.97-31.908L10,188.028V413.75
		c0,28.288,55.079,51.219,123.024,51.219c67.942,0,123.023-22.932,123.023-51.219V189.309l-10.251-0.053
		C226.808,207.342,183.465,219.983,133.024,219.983z"/>
</g>
<g>
	<path style="fill:#366CBA;" d="M254.152,299.003c-10.217,23.996-60.561,42.219-121.128,42.219l0,0v62.092l0,0
		c67.943,0,123.023-22.932,123.023-51.219v-53.092H254.152z"/>
	<path style="fill:#366CBA;" d="M133.024,402.877C65.079,402.877,10,379.945,10,351.657v62.092
		c0,28.288,55.079,51.219,123.024,51.219c67.942,0,123.023-22.932,123.023-51.219v-62.092
		C256.047,379.945,200.966,402.877,133.024,402.877z"/>
</g>
<path style="fill:#FFFFFF;" d="M53.802,452.932c21.404,7.509,49.041,12.037,79.222,12.037c30.169,0,57.796-4.524,79.197-12.028
	v-62.092c-21.401,7.504-49.028,12.028-79.197,12.028c-30.181,0-57.818-4.528-79.222-12.037L53.802,452.932L53.802,452.932z"/>
<g>
	<path style="fill:#366CBA;" d="M254.152,176.303c-10.217,23.996-60.561,42.219-121.128,42.219l0,0v62.092l0,0
		c67.943,0,123.023-22.932,123.023-51.219v-53.092L254.152,176.303L254.152,176.303z"/>
	<path style="fill:#366CBA;" d="M133.024,279.176C65.079,279.176,10,256.245,10,227.957v62.092
		c0,28.288,55.079,51.219,123.024,51.219c67.942,0,123.023-22.932,123.023-51.219v-62.092
		C256.047,256.245,200.966,279.176,133.024,279.176z"/>
</g>
<g>
	<path style="fill:#FFFFFF;" d="M53.802,329.232c21.404,7.509,49.041,12.037,79.222,12.037c30.169,0,57.796-4.524,79.197-12.028
		v-62.092c-21.401,7.504-49.028,12.028-79.197,12.028c-30.181,0-57.818-4.528-79.222-12.037L53.802,329.232L53.802,329.232z"/>
	<ellipse style="fill:#FFFFFF;" cx="133.02" cy="168.08" rx="122.93" ry="51.904"/>
</g>
<g>
	<path style="fill:#308EE2;" d="M93.118,150.646c11.6-1.933,25.266-3.052,39.906-3.052c12.312,0,23.929,0.794,34.215,2.195
		l5.793-2.195l20.384-20.871l-7.38-5.487c-16.051-3.244-34.028-5.062-53.011-5.062c-21.783,0-42.238,2.396-59.981,6.592
		l-5.072,3.957l22.455,22.992L93.118,150.646z"/>
	<path style="fill:#308EE2;" d="M172.929,185.511c-11.6,1.933-25.266,3.052-39.906,3.052c-12.312,0-23.929-0.794-34.215-2.195
		l-5.793,2.195l-20.384,20.871l7.38,5.487c16.051,3.244,34.028,5.062,53.011,5.062c21.783,0,42.238-2.396,59.981-6.592l5.072-3.957
		l-22.455-22.992L172.929,185.511z"/>
</g>
<ellipse style="fill:#FFFFFF;" cx="133.02" cy="168.08" rx="76" ry="20.484"/>
<path d="M512,98.219c0-17.982-14.983-34.123-42.189-45.45C445.385,42.6,413.126,37,378.976,37c-34.149,0-66.408,5.601-90.833,15.77
	c-27.206,11.327-42.189,27.468-42.189,45.45c0,0.793,0,35.854,0,35.854c-6.08-4.463-13.471-8.539-22.096-12.13
	c-24.426-10.169-56.685-15.77-90.834-15.77s-66.408,5.601-90.833,15.77C14.983,133.271,0,149.412,0,167.393
	c0,0.793,0,246.356,0,246.356c0,17.981,14.983,34.123,42.189,45.449c24.426,10.169,56.685,15.77,90.835,15.77
	c34.149,0,66.408-5.601,90.833-15.77c14.147-5.89,24.979-13.083,32.128-21.158c7.149,8.088,17.991,15.292,32.157,21.19
	C312.568,469.4,344.827,475,378.977,475c34.149,0,66.408-5.601,90.833-15.77c27.207-11.326,42.19-27.468,42.19-45.449
	C512,413.781,512,99.28,512,98.219z M492,344.247c0,18.441-43.421,38.949-103.027,41.041v-41.762
	c30.408-0.983,58.811-6.422,80.838-15.593c8.669-3.609,16.092-7.709,22.189-12.2L492,344.247L492,344.247z M266.047,345.669v-29.866
	c6.08,4.463,13.471,8.539,22.096,12.13c22.024,9.169,50.425,14.608,80.83,15.592v41.762
	C310.898,383.247,268.198,363.727,266.047,345.669z M143,392.7v-24.844c0-5.523-4.477-10-10-10s-10,4.477-10,10v24.842
	C63.407,390.6,20,370.096,20,351.657v-28.474c16.768,12.389,43.267,21.603,76.412,25.739c0.42,0.053,0.838,0.078,1.251,0.078
	c4.971,0,9.279-3.703,9.91-8.763c0.684-5.48-3.205-10.478-8.685-11.161c-13.318-1.662-25.027-4.15-35.087-7.164v-40.916
	c20.554,5.53,44.379,8.507,69.222,8.507c24.823,0,48.63-2.973,69.173-8.495v40.918c-10.049,3.008-21.743,5.49-35.041,7.15
	c-5.48,0.684-9.369,5.681-8.685,11.161c0.631,5.061,4.939,8.763,9.91,8.763c0.413,0,0.831-0.025,1.25-0.078
	c33.083-4.127,59.548-13.313,76.321-25.667v29.824C243.801,371.141,201.088,390.665,143,392.7z M133.023,157.594
	c34.504,0,56.654,6.115,64.078,10.484c-7.424,4.369-29.573,10.484-64.078,10.484s-56.654-6.115-64.078-10.484
	C76.37,163.709,98.519,157.594,133.023,157.594z M96.412,226.386c5.475,0.683,10.478-3.204,11.161-8.685
	c0.684-5.48-3.204-10.478-8.685-11.161c-3.4-0.424-6.688-0.905-9.878-1.432l8.604-8.81c10.908,1.477,22.955,2.264,35.409,2.264
	c10.893,0,21.476-0.602,31.258-1.74l8.707,8.915c-1.913,0.283-3.849,0.555-5.833,0.802c-5.48,0.684-9.369,5.681-8.685,11.161
	c0.631,5.061,4.939,8.763,9.91,8.763c0.413,0,0.831-0.025,1.25-0.078c33.083-4.127,59.548-13.313,76.321-25.667v28.986
	c-2.152,18.061-44.865,37.585-102.954,39.62v-24.471c0-5.523-4.477-10-10-10s-10,4.477-10,10v24.469
	c-59.593-2.098-103-22.602-103-41.041v-27.636C36.768,213.036,63.267,222.251,96.412,226.386z M382.58,85.093
	c34.504,0,56.654,6.115,64.078,10.484c-7.424,4.369-29.573,10.484-64.078,10.484s-56.654-6.115-64.078-10.484
	C325.926,91.208,348.075,85.093,382.58,85.093z M492,131.474v27.636c0,8.286-8.77,16.988-23.83,24.251v-38.972
	C477.47,140.641,485.471,136.298,492,131.474z M341.581,122.969c12.309,2.015,26.379,3.092,40.998,3.092
	c13.077,0,25.714-0.863,37.045-2.487l12.496,10.664c-5.925,1.227-12.258,2.286-19.012,3.129c-5.48,0.684-9.369,5.681-8.685,11.161
	c0.631,5.061,4.939,8.763,9.91,8.763c0.413,0,0.831-0.025,1.25-0.078c11.747-1.466,22.644-3.578,32.585-6.235v40.009
	c-18.833,5.672-42.633,9.343-69.193,9.343c-26.565,0-50.367-3.672-69.202-9.345v-40.009c9.943,2.657,20.841,4.771,32.59,6.237
	c5.477,0.685,10.478-3.204,11.161-8.685c0.684-5.48-3.204-10.478-8.685-11.161c-5.978-0.746-11.622-1.663-16.952-2.714
	L341.581,122.969z M289.775,183.357c-15.056-7.262-23.822-15.963-23.822-24.248v-27.636c6.527,4.823,14.526,9.165,23.822,12.912
	V183.357z M266.047,283.906v-29.825c6.51,4.794,14.478,9.111,23.729,12.84v39.809C275.579,299.883,266.982,291.756,266.047,283.906z
	 M223.857,273.734c8.624-3.591,16.016-7.667,22.096-12.13v29.742c-0.927,7.387-9.034,15.76-23.756,22.933v-39.887
	C222.748,274.171,223.315,273.96,223.857,273.734z M42.189,273.734c0.527,0.219,1.078,0.425,1.613,0.64v39.882
	C28.162,306.625,20,297.639,20,289.929v-28.395C26.098,266.024,33.52,270.124,42.189,273.734z M492,282.483
	c0,8.286-8.77,16.988-23.83,24.251v-39.81c9.299-3.748,17.301-8.091,23.83-12.915V282.483z M492,220.755
	c0,14.207-27.649,32.754-78.891,39.147c-5.48,0.684-9.369,5.681-8.685,11.161c0.631,5.061,4.939,8.763,9.91,8.763
	c0.413,0,0.831-0.025,1.25-0.078c11.747-1.466,22.644-3.578,32.585-6.235v40.847c-18.833,5.672-42.633,9.343-69.193,9.343
	c-26.565,0-50.367-3.672-69.202-9.345v-40.846c9.943,2.657,20.841,4.771,32.59,6.236c0.42,0.053,0.838,0.078,1.251,0.078
	c4.971,0,9.279-3.703,9.91-8.763c0.684-5.48-3.205-10.478-8.685-11.161c-49.554-6.183-77.039-23.733-78.795-37.731v-29.742
	c6.08,4.463,13.471,8.539,22.096,12.13c22.024,9.169,50.425,14.608,80.83,15.592v23.398c0,5.523,4.477,10,10,10s10-4.477,10-10
	v-23.398c30.408-0.983,58.811-6.422,80.838-15.593c8.669-3.609,16.092-7.709,22.189-12.2v28.397H492z M492,98.219
	c0,9.6-12.643,21.178-36.643,29.653c-0.264-0.285-0.543-0.562-0.846-0.82l-10.397-8.873c16.241-5.285,24.466-12.875,24.466-22.602
	c0-9.257-7.454-16.576-22.17-21.817l6.808-5.81C477.278,76.046,492,87.482,492,98.219z M429.652,61.767l-7.297,6.227
	c-12.016-1.889-25.636-2.901-39.776-2.901c-15.691,0-30.747,1.242-43.674,3.552l-8.53-7.279C344.93,58.619,361.343,57,378.976,57
	C397.452,57,414.59,58.777,429.652,61.767z M306.57,67.344l8.958,7.644c-12.58,5.135-18.948,12.034-18.948,20.589
	c0,9.042,7.106,16.237,21.153,21.451l-11.746,10.023c-0.537,0.458-1.012,0.963-1.428,1.5c-25.277-8.528-38.606-20.474-38.606-30.333
	C265.953,87.212,281.424,75.469,306.57,67.344z M245.953,165.971v2.839c-1.373,10.949-18.5,24.065-49.605,32.221l-8.281-8.479
	c0.432-0.112,0.874-0.219,1.299-0.334c19.679-5.304,29.657-13.426,29.657-24.14c0-10.538-9.66-18.567-28.704-23.875l9.244-9.466
	C227.009,142.538,244.592,154.547,245.953,165.971z M176.581,129.647l-9.76,9.993c-10.477-1.339-21.957-2.046-33.798-2.046
	c-13.41,0-26.354,0.908-37.906,2.613l-9.637-9.868c14.29-2.626,30.337-4.166,47.542-4.166
	C148.648,126.174,163.315,127.447,176.581,129.647z M62.867,135.809l9.248,9.469c-16.651,5.293-25.092,12.95-25.092,22.8
	c0,10.272,9.178,18.16,27.277,23.468l-8.281,8.479C35.941,191.453,20,178.175,20,167.393C20,156.062,36.398,143.95,62.867,135.809z
	 M20,413.75v-28.843c6.098,4.491,13.52,8.591,22.189,12.2c0.527,0.219,1.078,0.425,1.613,0.64v40.24
	C28.759,430.727,20,422.03,20,413.75z M63.802,445.618V404.37c20.554,5.53,44.379,8.507,69.222,8.507
	c24.823,0,48.63-2.973,69.173-8.495v41.25c-18.83,5.668-42.622,9.336-69.173,9.336C106.45,454.969,82.639,451.295,63.802,445.618z
	 M222.197,438.01v-40.245c0.55-0.221,1.117-0.433,1.66-0.659c8.624-3.591,16.016-7.667,22.096-12.13v28.804
	c0,0.379,0.016,0.756,0.03,1.134C245.206,422.85,236.565,431.085,222.197,438.01z M266.016,414.935
	c0.015-0.394,0.031-0.789,0.031-1.185v-36.183c6.08,4.463,13.471,8.539,22.096,12.13c0.534,0.222,1.092,0.43,1.633,0.648v47.685
	C275.417,431.103,266.785,422.868,266.016,414.935z M309.393,445.539c0.243-0.863,0.382-1.77,0.382-2.711v-45.865
	c20.548,5.527,44.363,8.502,69.196,8.502h0.001h0.001c0.001,0,0.002,0,0.004,0c24.831,0,48.646-2.974,69.193-8.5v45.863
	c0,0.942,0.139,1.849,0.383,2.713C429.66,451.279,405.718,455,378.977,455C352.232,455,328.288,451.278,309.393,445.539z
	 M468.17,438.032v-47.685c0.544-0.219,1.104-0.428,1.64-0.651c8.669-3.609,16.092-7.709,22.189-12.2v36.285
	C492,422.067,483.23,430.769,468.17,438.032z"/>
<path d="M378.973,159.48c5.523,0,10-4.477,10-10v-0.047c0-5.523-4.477-9.977-10-9.977s-10,4.5-10,10.023
	S373.45,159.48,378.973,159.48z"/>
<path d="M378.973,261.992c-5.523,0-10,4.5-10,10.023s4.477,10,10,10s10-4.477,10-10v-0.047
	C388.973,266.446,384.496,261.992,378.973,261.992z"/>
<path d="M133.02,228.655c5.523,0,10-4.477,10-10v-0.047c0-5.523-4.477-9.977-10-9.977s-10,4.5-10,10.023
	S127.497,228.655,133.02,228.655z"/>
<path d="M133.02,331.167c-5.523,0-10,4.5-10,10.023s4.477,10,10,10c5.523,0,10-4.477,10-10v-0.047
	C143.02,335.62,138.542,331.167,133.02,331.167z"/>
<g>
</g>
<g>
</g>
<g>
</g>
<g>
</g>
<g>
</g>
<g>
</g>
<g>
</g>
<g>
</g>
<g>
</g>
<g>
</g>
<g>
</g>
<g>
</g>
<g>
</g>
<g>
</g>
<g>
</g>
</svg>
